<svg width="32" height="32" viewBox="0 0 32 32" fill="none" xmlns="http://www.w3.org/2000/svg">
<g clip-path="url(#clip0_600_2445)">
<path d="M30 12H29.3333V10.6667C29.3333 6.99067 26.3427 4 22.6667 4H17.3333V1.33333C17.3333 0.597333 16.7373 0 16 0C15.2627 0 14.6667 0.597333 14.6667 1.33333V4H9.33333C5.65733 4 2.66667 6.99067 2.66667 10.6667V12H2C0.897333 12 0 12.8973 0 14V18C0 19.1027 0.897333 20 2 20H2.66667V21.3333C2.66667 25.0093 5.65733 28 9.33333 28H19.596L24.88 31.5227C25.36 31.8427 25.9133 32.004 26.468 32.004C26.932 32.004 27.396 31.892 27.8213 31.664C28.7533 31.164 29.3333 30.1973 29.3333 29.1387V19.9987H30C31.1027 19.9987 32 19.1013 32 17.9987V13.9987C32 12.896 31.1027 11.9987 30 11.9987V12ZM11.3333 10.6667C12.4373 10.6667 13.3333 11.5627 13.3333 12.6667C13.3333 13.7707 12.4373 14.6667 11.3333 14.6667C10.2293 14.6667 9.33333 13.7707 9.33333 12.6667C9.33333 11.5627 10.2293 10.6667 11.3333 10.6667ZM22.0413 20.764C20.6587 21.632 18.4867 22.6667 16 22.6667C13.5133 22.6667 11.3413 21.632 9.95867 20.764C9.33467 20.3733 9.14667 19.5493 9.53867 18.9267C9.93067 18.304 10.7533 18.1147 11.376 18.5053C12.4627 19.188 14.148 20 16.0013 20C17.8547 20 19.5387 19.188 20.6267 18.5053C21.248 18.1133 22.0733 18.3027 22.464 18.9267C22.856 19.5507 22.6667 20.3733 22.044 20.764H22.0413ZM20.6667 14.6667C19.5627 14.6667 18.6667 13.7707 18.6667 12.6667C18.6667 11.5627 19.5627 10.6667 20.6667 10.6667C21.7707 10.6667 22.6667 11.5627 22.6667 12.6667C22.6667 13.7707 21.7707 14.6667 20.6667 14.6667Z" fill="black"/>
</g>
<defs>
<clipPath id="clip0_600_2445">
<rect width="32" height="32" fill="white"/>
</clipPath>
</defs>
</svg>
