<svg width="16" height="16" viewBox="0 0 16 16" fill="none" xmlns="http://www.w3.org/2000/svg">
<path d="M13.7208 2.27916C13.542 2.10042 13.2996 2 13.0467 2C12.7939 2 12.5514 2.10042 12.3726 2.27916L8 6.65179L3.62737 2.27916C3.44857 2.10042 3.2061 2 2.95327 2C2.70044 2 2.45797 2.10042 2.27916 2.27916C2.10042 2.45797 2 2.70044 2 2.95327C2 3.2061 2.10042 3.44857 2.27916 3.62737L6.65179 8L2.27916 12.3726C2.10042 12.5514 2 12.7939 2 13.0467C2 13.2996 2.10042 13.542 2.27916 13.7208C2.45797 13.8996 2.70044 14 2.95327 14C3.2061 14 3.44857 13.8996 3.62737 13.7208L8 9.34821L12.3726 13.7208C12.5514 13.8996 12.7939 14 13.0467 14C13.2996 14 13.542 13.8996 13.7208 13.7208C13.8996 13.542 14 13.2996 14 13.0467C14 12.7939 13.8996 12.5514 13.7208 12.3726L9.34821 8L13.7208 3.62737C13.8996 3.44857 14 3.2061 14 2.95327C14 2.70044 13.8996 2.45797 13.7208 2.27916Z" fill="#959698"/>
</svg>
