<svg width="32" height="32" viewBox="0 0 32 32" fill="none" xmlns="http://www.w3.org/2000/svg">
<g clip-path="url(#clip0_164_274)">
<path d="M29.9094 14.7279C29.4587 13.5999 28.8107 12.5466 28 11.6253V6.67194C28 5.84794 27.6294 5.08261 26.9814 4.57061C26.344 4.06794 25.5294 3.88661 24.74 4.07194C22.3067 4.65194 20.4814 6.03061 19.504 7.99994H12.3534C8.91205 7.99994 5.82271 9.54394 3.79471 11.9586C2.19471 11.7253 2.38805 9.33061 3.99871 9.33327C5.74138 9.32661 5.74271 6.67327 3.99871 6.66661C-0.247952 6.65327 -1.50662 12.5413 2.30805 14.2786C-0.0372858 19.1053 2.00271 25.3213 6.66538 27.8946V27.9999C6.66805 32.4679 12.9854 33.4906 14.4374 29.3333H17.5614C19.0134 33.4933 25.3307 32.4653 25.3334 27.9999V27.8773C27.4134 26.6733 29.028 24.8106 29.9094 22.6053C31.004 22.3719 32 21.4746 32 19.9999V17.3333C32 15.8586 31.0027 14.9613 29.9094 14.7279ZM24 17.3333C22.256 17.3253 22.256 14.6746 24 14.6666C25.744 14.6746 25.744 17.3253 24 17.3333ZM8.06938 6.01594C7.32005 -1.43873 18.3894 -2.16006 18.6667 5.33327H12.3547C10.86 5.33327 9.42138 5.57994 8.06938 6.01594Z" fill="white"/>
</g>
<defs>
<clipPath id="clip0_164_274">
<rect width="32" height="32" fill="white"/>
</clipPath>
</defs>
</svg>
