<svg width="32" height="32" viewBox="0 0 32 32" fill="none" xmlns="http://www.w3.org/2000/svg">
<g clip-path="url(#clip0_164_272)">
<path d="M25.3333 2.66663H6.66667C4.89921 2.66874 3.20474 3.3718 1.95496 4.62159C0.705176 5.87137 0.00211714 7.56583 0 9.33329L0 22.6666C0.00211714 24.4341 0.705176 26.1286 1.95496 27.3783C3.20474 28.6281 4.89921 29.3312 6.66667 29.3333H25.3333C27.1008 29.3312 28.7953 28.6281 30.045 27.3783C31.2948 26.1286 31.9979 24.4341 32 22.6666V9.33329C31.9979 7.56583 31.2948 5.87137 30.045 4.62159C28.7953 3.3718 27.1008 2.66874 25.3333 2.66663ZM6.66667 14.6666H9.33333C9.68696 14.6666 10.0261 14.8071 10.2761 15.0572C10.5262 15.3072 10.6667 15.6463 10.6667 16C10.6667 16.3536 10.5262 16.6927 10.2761 16.9428C10.0261 17.1928 9.68696 17.3333 9.33333 17.3333H6.66667C6.31304 17.3333 5.97391 17.1928 5.72386 16.9428C5.47381 16.6927 5.33333 16.3536 5.33333 16C5.33333 15.6463 5.47381 15.3072 5.72386 15.0572C5.97391 14.8071 6.31304 14.6666 6.66667 14.6666ZM17.3333 24H6.66667C6.31304 24 5.97391 23.8595 5.72386 23.6094C5.47381 23.3594 5.33333 23.0202 5.33333 22.6666C5.33333 22.313 5.47381 21.9739 5.72386 21.7238C5.97391 21.4738 6.31304 21.3333 6.66667 21.3333H17.3333C17.687 21.3333 18.0261 21.4738 18.2761 21.7238C18.5262 21.9739 18.6667 22.313 18.6667 22.6666C18.6667 23.0202 18.5262 23.3594 18.2761 23.6094C18.0261 23.8595 17.687 24 17.3333 24ZM25.3333 24H22.6667C22.313 24 21.9739 23.8595 21.7239 23.6094C21.4738 23.3594 21.3333 23.0202 21.3333 22.6666C21.3333 22.313 21.4738 21.9739 21.7239 21.7238C21.9739 21.4738 22.313 21.3333 22.6667 21.3333H25.3333C25.687 21.3333 26.0261 21.4738 26.2761 21.7238C26.5262 21.9739 26.6667 22.313 26.6667 22.6666C26.6667 23.0202 26.5262 23.3594 26.2761 23.6094C26.0261 23.8595 25.687 24 25.3333 24ZM25.3333 17.3333H14.6667C14.313 17.3333 13.9739 17.1928 13.7239 16.9428C13.4738 16.6927 13.3333 16.3536 13.3333 16C13.3333 15.6463 13.4738 15.3072 13.7239 15.0572C13.9739 14.8071 14.313 14.6666 14.6667 14.6666H25.3333C25.687 14.6666 26.0261 14.8071 26.2761 15.0572C26.5262 15.3072 26.6667 15.6463 26.6667 16C26.6667 16.3536 26.5262 16.6927 26.2761 16.9428C26.0261 17.1928 25.687 17.3333 25.3333 17.3333Z" fill="white"/>
</g>
<defs>
<clipPath id="clip0_164_272">
<rect width="32" height="32" fill="white"/>
</clipPath>
</defs>
</svg>
