<svg width="32" height="32" viewBox="0 0 32 32" fill="none" xmlns="http://www.w3.org/2000/svg">
<g clip-path="url(#clip0_164_276)">
<path d="M29.3384 5.99737C29.3398 4.84403 28.6384 3.8507 27.5518 3.4667L18.9318 0.425368C17.0811 -0.229299 15.0438 -0.230632 13.1944 0.417368L4.47045 3.4707C3.37978 3.85203 2.67578 4.84403 2.67578 5.9987C2.67578 7.1547 3.38111 8.1467 4.47178 8.5267L13.1478 11.5534C14.0664 11.8734 15.0331 12.0347 15.9984 12.0347C16.9638 12.0347 17.9291 11.8734 18.8478 11.5534L26.6664 8.8267V14.6654C26.6664 15.4014 27.2638 15.9987 27.9998 15.9987C28.7358 15.9987 29.3331 15.4014 29.3331 14.6654C29.3331 14.6654 29.3384 6.00937 29.3384 5.99737ZM19.7264 14.072L23.9998 12.5814V13.3334C23.9998 17.7454 20.4118 21.3334 15.9998 21.3334C11.5878 21.3334 7.99978 17.7454 7.99978 13.3334V12.5827L12.2704 14.0734C14.6691 14.9094 17.3291 14.9094 19.7264 14.0734V14.072ZM25.3331 32H6.66645C6.24245 32 5.84378 31.7987 5.59311 31.4574C5.34245 31.116 5.26778 30.676 5.39311 30.2707C6.78511 25.7934 11.1464 22.6667 15.9998 22.6667C20.8531 22.6667 25.2144 25.7934 26.6064 30.2707C26.7318 30.6747 26.6584 31.116 26.4064 31.4574C26.1544 31.7987 25.7571 32 25.3331 32Z" fill="white"/>
</g>
<defs>
<clipPath id="clip0_164_276">
<rect width="32" height="32" fill="white"/>
</clipPath>
</defs>
</svg>
