<svg width="20" height="20" viewBox="0 0 20 20" fill="none" xmlns="http://www.w3.org/2000/svg">
<g clip-path="url(#clip0_164_477)">
<path d="M10.0077 20C8.60738 19.9916 7.22421 19.6908 5.94684 19.1168C4.66946 18.5429 3.52604 17.7085 2.58982 16.6671C1.6536 15.6257 0.945214 14.4002 0.510048 13.0691C0.0748816 11.7381 -0.0774739 10.3308 0.0627406 8.93745C0.311883 6.7617 1.26139 4.72586 2.7682 3.13669C4.27501 1.54751 6.25749 0.491093 8.41691 0.126615C9.81197 -0.0898286 11.2359 -0.0315131 12.6086 0.298282C12.97 0.391053 13.2999 0.579203 13.5638 0.84307C13.8277 1.10694 14.0158 1.43683 14.1086 1.79828C14.202 2.15645 14.1972 2.53319 14.0945 2.88883C13.9919 3.24448 13.7952 3.56585 13.5252 3.81912C9.72607 7.29245 10.0544 12.69 14.1977 15.8291C14.4904 16.059 14.7162 16.3632 14.8515 16.7099C14.9868 17.0566 15.0268 17.4333 14.9672 17.8007C14.9077 18.1681 14.7508 18.5128 14.5129 18.7991C14.275 19.0853 13.9647 19.3026 13.6144 19.4283C12.4501 19.8087 11.2327 20.0016 10.0077 20ZM17.0836 9.99995C16.8978 9.99995 16.7174 9.93786 16.5709 9.82357C16.4244 9.70928 16.3204 9.54932 16.2752 9.36912L15.9769 8.17745L14.7836 7.85662C14.6041 7.80831 14.4459 7.70139 14.3342 7.55286C14.2225 7.40433 14.1636 7.22272 14.167 7.0369C14.1703 6.85107 14.2357 6.6717 14.3527 6.5273C14.4697 6.3829 14.6316 6.28175 14.8127 6.23995L15.9794 5.96912L16.2719 4.79745C16.3171 4.61726 16.4211 4.45733 16.5676 4.34305C16.714 4.22877 16.8945 4.1667 17.0802 4.1667C17.266 4.1667 17.4464 4.22877 17.5929 4.34305C17.7393 4.45733 17.8434 4.61726 17.8886 4.79745L18.1844 5.97912L19.3661 6.27495C19.5463 6.32011 19.7062 6.42418 19.8205 6.57063C19.9348 6.71708 19.9968 6.89752 19.9968 7.08328C19.9968 7.26905 19.9348 7.44948 19.8205 7.59593C19.7062 7.74239 19.5463 7.84646 19.3661 7.89162L18.1844 8.18745L17.8886 9.36912C17.8436 9.54877 17.74 9.70831 17.5942 9.82255C17.4485 9.93678 17.2688 9.9992 17.0836 9.99995ZM19.1669 14.1791C18.9459 14.1791 18.7339 14.2669 18.5777 14.4232C18.4214 14.5795 18.3336 14.7914 18.3336 15.0124C18.3336 15.2335 18.4214 15.4454 18.5777 15.6017C18.7339 15.758 18.9459 15.8458 19.1669 15.8458C19.3879 15.8458 19.5999 15.758 19.7562 15.6017C19.9124 15.4454 20.0002 15.2335 20.0002 15.0124C20.0002 14.7914 19.9124 14.5795 19.7562 14.4232C19.5999 14.2669 19.3879 14.1791 19.1669 14.1791ZM14.1669 10.8458C13.9459 10.8458 13.7339 10.9336 13.5777 11.0899C13.4214 11.2461 13.3336 11.4581 13.3336 11.6791C13.3336 11.9001 13.4214 12.1121 13.5777 12.2684C13.7339 12.4247 13.9459 12.5125 14.1669 12.5125C14.3879 12.5125 14.5999 12.4247 14.7562 12.2684C14.9124 12.1121 15.0002 11.9001 15.0002 11.6791C15.0002 11.4581 14.9124 11.2461 14.7562 11.0899C14.5999 10.9336 14.3879 10.8458 14.1669 10.8458Z" fill="white"/>
</g>
<defs>
<clipPath id="clip0_164_477">
<rect width="20" height="20" fill="white"/>
</clipPath>
</defs>
</svg>
