<svg width="32" height="32" viewBox="0 0 32 32" fill="none" xmlns="http://www.w3.org/2000/svg">
<g clip-path="url(#clip0_531_2381)">
<circle cx="16" cy="16" r="16" fill="#F4F5F8"/>
<path d="M16 0C12.8355 0 9.74207 0.938384 7.11088 2.69649C4.4797 4.45459 2.42894 6.95345 1.21793 9.87707C0.00693258 12.8007 -0.309921 16.0178 0.307443 19.1214C0.924806 22.2251 2.44866 25.0761 4.6863 27.3137C6.92394 29.5514 9.77487 31.0752 12.8786 31.6926C15.9823 32.3099 19.1993 31.9931 22.1229 30.7821C25.0466 29.5711 27.5454 27.5203 29.3035 24.8891C31.0616 22.2579 32 19.1645 32 16C31.9954 11.7579 30.3082 7.69095 27.3087 4.69136C24.3091 1.69177 20.2421 0.00458811 16 0ZM16 26.6667C15.7363 26.6667 15.4785 26.5885 15.2592 26.442C15.04 26.2955 14.8691 26.0872 14.7682 25.8436C14.6673 25.5999 14.6408 25.3319 14.6923 25.0732C14.7437 24.8146 14.8707 24.577 15.0572 24.3905C15.2437 24.2041 15.4812 24.0771 15.7399 24.0256C15.9985 23.9742 16.2666 24.0006 16.5103 24.1015C16.7539 24.2024 16.9621 24.3733 17.1086 24.5926C17.2551 24.8118 17.3333 25.0696 17.3333 25.3333C17.3333 25.687 17.1929 26.0261 16.9428 26.2761C16.6928 26.5262 16.3536 26.6667 16 26.6667ZM18.5733 16.6747C18.1799 16.9207 17.8581 17.266 17.6404 17.6758C17.4228 18.0856 17.3168 18.5456 17.3333 19.0093V20C17.3333 20.3536 17.1929 20.6928 16.9428 20.9428C16.6928 21.1929 16.3536 21.3333 16 21.3333C15.6464 21.3333 15.3072 21.1929 15.0572 20.9428C14.8072 20.6928 14.6667 20.3536 14.6667 20V19.0093C14.647 18.0686 14.8794 17.1397 15.3399 16.3191C15.8004 15.4985 16.4721 14.816 17.2853 14.3427C17.778 14.0713 18.1722 13.6512 18.4117 13.1423C18.6512 12.6334 18.7236 12.0619 18.6187 11.5093C18.5148 10.9829 18.2563 10.4995 17.8763 10.1207C17.4963 9.74185 17.0121 9.48491 16.4853 9.38267C16.101 9.31152 15.7057 9.32575 15.3274 9.42435C14.9491 9.52295 14.5972 9.7035 14.2964 9.95322C13.9957 10.2029 13.7535 10.5157 13.5871 10.8694C13.4207 11.2231 13.334 11.6091 13.3333 12C13.3333 12.3536 13.1929 12.6928 12.9428 12.9428C12.6928 13.1929 12.3536 13.3333 12 13.3333C11.6464 13.3333 11.3072 13.1929 11.0572 12.9428C10.8072 12.6928 10.6667 12.3536 10.6667 12C10.667 11.0593 10.9161 10.1355 11.3887 9.3222C11.8614 8.5089 12.5407 7.83506 13.3578 7.36905C14.1749 6.90303 15.1007 6.66142 16.0414 6.66872C16.982 6.67601 17.904 6.93196 18.7138 7.41059C19.5235 7.88922 20.1923 8.57351 20.6523 9.39405C21.1122 10.2146 21.347 11.1422 21.3327 12.0827C21.3185 13.0233 21.0557 13.9433 20.5711 14.7495C20.0865 15.5558 19.3973 16.2208 18.5733 16.6747Z" fill="#8A8A8A"/>
</g>
<defs>
<clipPath id="clip0_531_2381">
<rect width="32" height="32" fill="white"/>
</clipPath>
</defs>
</svg>
